<?xml version="1.0" encoding="UTF-8" standalone="no"?>
<!DOCTYPE svg PUBLIC "-//W3C//DTD SVG 1.1//EN" "http://www.w3.org/Graphics/SVG/1.1/DTD/svg11.dtd">
<svg width="100%" height="100%" viewBox="0 0 64 64" version="1.1" xmlns="http://www.w3.org/2000/svg" xmlns:xlink="http://www.w3.org/1999/xlink" xml:space="preserve" xmlns:serif="http://www.serif.com/" style="fill-rule:evenodd;clip-rule:evenodd;stroke-linejoin:round;stroke-miterlimit:2;">
    <g transform="matrix(1.147102,0,0,1.147102,-4.707267,-5.854369)">
        <path d="M32,9.5C40.5,12.2 47,15 50.5,16.6L50.5,31.2C50.5,43.8 42.2,52.4 32,56.5C21.8,52.4 13.5,43.8 13.5,31.2L13.5,16.6C17,15 23.5,12.2 32,9.5Z" style="fill:rgb(100,255,218);fill-rule:nonzero;"/>
        <path d="M32,13.2C39,15.5 44.5,17.8 47.2,19L47.2,31C47.2,41.2 40.6,48.4 32,52C23.4,48.4 16.8,41.2 16.8,31L16.8,19C19.5,17.8 25,15.5 32,13.2Z" style="fill:rgb(16,28,40);fill-rule:nonzero;"/>
        <path d="M21.5,22.5L27.2,22.5L32,36.2L36.8,22.5L42.5,22.5L34.6,44.5L29.4,44.5L21.5,22.5Z" style="fill:rgb(100,255,218);fill-rule:nonzero;"/>
    </g>
</svg>
